<?xml version="1.0" encoding="UTF-8" standalone="no"?>
<svg
   xmlns:dc="http://purl.org/dc/elements/1.1/"
   xmlns:cc="http://creativecommons.org/ns#"
   xmlns:rdf="http://www.w3.org/1999/02/22-rdf-syntax-ns#"
   xmlns:svg="http://www.w3.org/2000/svg"
   xmlns="http://www.w3.org/2000/svg"
   xmlns:sodipodi="http://sodipodi.sourceforge.net/DTD/sodipodi-0.dtd"
   xmlns:inkscape="http://www.inkscape.org/namespaces/inkscape"
   version="1.0"
   width="25.228065"
   height="25.917999"
   viewBox="0 0 25.228066 25.917999"
   id="Layer_1"
   xml:space="preserve"
   sodipodi:docname="devil postie.svg"
   inkscape:version="1.0.1 (3bc2e813f5, 2020-09-07)"><metadata
   id="metadata23"><rdf:RDF><cc:Work
       rdf:about=""><dc:format>image/svg+xml</dc:format><dc:type
         rdf:resource="http://purl.org/dc/dcmitype/StillImage" /><dc:title></dc:title></cc:Work></rdf:RDF></metadata><sodipodi:namedview
   pagecolor="#ffffff"
   bordercolor="#666666"
   borderopacity="1"
   objecttolerance="10"
   gridtolerance="10"
   guidetolerance="10"
   inkscape:pageopacity="0"
   inkscape:pageshadow="2"
   inkscape:window-width="3840"
   inkscape:window-height="2066"
   id="namedview21"
   showgrid="false"
   inkscape:pagecheckerboard="true"
   fit-margin-top="0"
   fit-margin-left="0"
   fit-margin-right="0"
   fit-margin-bottom="0"
   inkscape:zoom="22.710281"
   inkscape:cx="37.909691"
   inkscape:cy="18.134957"
   inkscape:window-x="-11"
   inkscape:window-y="-11"
   inkscape:window-maximized="1"
   inkscape:current-layer="Layer_1"
   inkscape:document-rotation="0" /><defs
   id="defs2332">
	
	
	
	
	
	
	
	
	
	
	
	
	
	
	
</defs>

<path
   d="M 22.928628,10.526844 C 21.080128,6.5428405 16.783632,4.0633619 12.211879,4.7181865 7.6410294,5.3728819 4.2140646,8.9598181 3.5593441,13.30278 Z"
   style="fill:#d71635;fill-opacity:1;stroke:none;stroke-width:0.911288;stroke-opacity:1"
   id="path2309" /><path
   d="m 23.74606,13.385185 c -0.03381,-0.236352 -0.07625,-0.468708 -0.125773,-0.699129 l -1.037295,0.149286 c 0.0285,0.134928 0.05418,0.275784 0.07405,0.41471 0.497924,3.474789 -1.915369,6.6958 -5.390157,7.193725 -3.448628,0.494182 -6.647599,-1.880835 -7.181214,-5.315537 l -6.5914427,0.944623 c 0.00917,0.0705 0.017293,0.140214 0.027487,0.21148 0.8006303,5.584691 5.977325,9.461802 11.5622737,8.662981 5.58353,-0.802303 9.462577,-5.978351 8.662078,-11.562139"
   style="fill:#d71635;fill-opacity:1;stroke:none;stroke-width:0.911288;stroke-opacity:1"
   id="path2311" />
<path
   d="m 16.649328,11.969607 c 0.515148,1.074119 1.68902,1.731705 2.926686,1.538262 1.23743,-0.193406 2.154449,-1.178117 2.316961,-2.358265 z"
   style="fill:#d71635;fill-opacity:1;stroke:none;stroke-width:0.247177;stroke-opacity:1"
   id="path2309-3" /><path
   d="m 11.405688,12.789606 c 0.515145,1.07412 1.689019,1.731705 2.926682,1.538263 1.237422,-0.193404 2.154442,-1.178114 2.316958,-2.358262 z"
   style="fill:#d71635;fill-opacity:1;stroke:none;stroke-width:0.247177;stroke-opacity:1"
   id="path2309-3-1" /><path
   d="m 19.74916,0.48943916 c -0.10104,-0.0121563 -0.201358,-0.0205538 -0.301716,-0.0253771 l -0.05297,0.44355312 c 0.05865,0.00338 0.119541,0.00796 0.178935,0.015101 1.485575,0.17833012 2.545491,1.52727052 2.36716,3.01284902 -0.176986,1.4743864 -1.507742,2.5294524 -2.980752,2.370239 L 18.621579,9.123845 c 0.03004,0.00396 0.05963,0.00841 0.09009,0.012027 2.387665,0.2864696 4.555039,-1.4171593 4.842277,-3.804723 0.285657,-2.387361 -1.417491,-4.55546402 -3.804762,-4.84188908"
   style="fill:#d71635;fill-opacity:1;stroke:none;stroke-width:0.388431;stroke-opacity:1"
   id="path2311-1" /><path
   d="m 3.4273402,3.1260718 c 0.093582,-0.03999 0.1875232,-0.076173 0.2825046,-0.1089429 l 0.1751889,0.4109193 c -0.055364,0.019694 -0.1125166,0.041151 -0.167527,0.06466 C 2.3414876,4.0803357 1.7022134,5.6723135 2.2898438,7.0483355 2.8730454,8.4139911 4.4462089,9.0537051 5.8155264,8.4879461 l 1.114656,2.6102309 c -0.027707,0.01225 -0.054914,0.02476 -0.083111,0.0368 C 4.6354482,12.079295 2.0774019,11.051546 1.13238,8.8402374 0.18893191,6.62868 1.2160117,4.0700691 3.4272712,3.1259106"
   style="fill:#d71635;fill-opacity:1;stroke:none;stroke-width:0.388431;stroke-opacity:1"
   id="path2311-1-7" /><path
   d="m 20.36957,15.745747 c 0.007,-0.09475 0.01007,-0.188713 0.01033,-0.282517 l -0.41601,-0.02981 c -3.6e-4,0.05486 -0.0023,0.111868 -0.0064,0.167517 -0.100705,1.393373 -1.311971,2.441471 -2.705338,2.340764 -1.382885,-0.09995 -2.425652,-1.294454 -2.342223,-2.675262 l -2.643144,-0.190998 c -0.002,0.02808 -0.0051,0.056 -0.0073,0.08455 -0.161712,2.239462 1.522873,4.185592 3.762282,4.34803 2.239158,0.16097 4.185983,-1.523209 4.347667,-3.762307"
   style="fill:#d71635;fill-opacity:1;stroke:none;stroke-width:0.362671;stroke-opacity:1"
   id="path2311-2" /></svg>
