<?xml version="1.0" encoding="UTF-8" standalone="no"?>
<svg
   xmlns:dc="http://purl.org/dc/elements/1.1/"
   xmlns:cc="http://creativecommons.org/ns#"
   xmlns:rdf="http://www.w3.org/1999/02/22-rdf-syntax-ns#"
   xmlns:svg="http://www.w3.org/2000/svg"
   xmlns="http://www.w3.org/2000/svg"
   xmlns:sodipodi="http://sodipodi.sourceforge.net/DTD/sodipodi-0.dtd"
   xmlns:inkscape="http://www.inkscape.org/namespaces/inkscape"
   version="1.0"
   width="25.228065"
   height="25.917999"
   viewBox="0 0 25.228066 25.917999"
   id="Layer_1"
   xml:space="preserve"
   sodipodi:docname="devil postie.svg"
   inkscape:version="1.0.1 (3bc2e813f5, 2020-09-07)"><metadata
   id="metadata23"><rdf:RDF><cc:Work
       rdf:about=""><dc:format>image/svg+xml</dc:format><dc:type
         rdf:resource="http://purl.org/dc/dcmitype/StillImage" /><dc:title /></cc:Work></rdf:RDF></metadata><sodipodi:namedview
   pagecolor="#ffffff"
   bordercolor="#666666"
   borderopacity="1"
   objecttolerance="10"
   gridtolerance="10"
   guidetolerance="10"
   inkscape:pageopacity="0"
   inkscape:pageshadow="2"
   inkscape:window-width="3840"
   inkscape:window-height="2066"
   id="namedview21"
   showgrid="false"
   inkscape:pagecheckerboard="true"
   fit-margin-top="0"
   fit-margin-left="0"
   fit-margin-right="0"
   fit-margin-bottom="0"
   inkscape:zoom="22.710281"
   inkscape:cx="37.909691"
   inkscape:cy="18.134957"
   inkscape:window-x="-11"
   inkscape:window-y="-11"
   inkscape:window-maximized="1"
   inkscape:current-layer="Layer_1"
   inkscape:document-rotation="0" /><defs
   id="defs2332">
	
	
	
	
	
	
	
	
	
	
	
	
	
	
	
</defs>

<path
   d="M 21.517879,10.610018 C 19.489433,6.2381826 14.774684,3.5173336 9.7578849,4.2359036 4.7420744,4.9543317 0.98150408,8.8904463 0.26304832,13.656185 Z"
   style="fill:#d71635;fill-opacity:1;stroke:none;stroke-opacity:1"
   id="path2309" /><path
   d="m 22.414887,13.746611 c -0.0371,-0.25936 -0.08367,-0.514335 -0.138018,-0.767187 l -1.138272,0.163819 c 0.03127,0.148062 0.05945,0.302631 0.08125,0.45508 0.546396,3.81305 -2.101824,7.347618 -5.914873,7.894015 -3.784343,0.542289 -7.2947252,-2.063929 -7.8802861,-5.83299 l -7.23310174,1.03658 c 0.0100528,0.07736 0.0189768,0.153863 0.0301626,0.232067 C 1.1003183,23.05634 6.7809499,27.310877 12.909578,26.434292 19.03665,25.553888 23.293311,19.873966 22.414887,13.746611"
   style="fill:#d71635;fill-opacity:1;stroke:none;stroke-opacity:1"
   id="path2311" />
<path
   d="m 14.627307,12.193231 c 0.565295,1.178681 1.853441,1.900281 3.211591,1.688007 1.35789,-0.212233 2.364178,-1.292803 2.542511,-2.587836 z"
   style="fill:#d71635;fill-opacity:1;stroke:none;stroke-width:0.271238;stroke-opacity:1"
   id="path2309-3" /><path
   d="m 8.8732126,13.093054 c 0.5652928,1.178683 1.8534404,1.900282 3.2115864,1.688009 1.357882,-0.212231 2.364171,-1.2928 2.542508,-2.587832 z"
   style="fill:#d71635;fill-opacity:1;stroke:none;stroke-width:0.271238;stroke-opacity:1"
   id="path2309-3-1" /><path
   d="m 18.028899,-0.40450068 c -0.110876,-0.0133398 -0.22096,-0.0225549 -0.331088,-0.0278473 l -0.05813,0.48673175 c 0.06437,0.0037148 0.131179,0.0087324 0.196355,0.01657134 1.630191,0.19569 2.793288,1.67594603 2.597597,3.30614153 -0.194216,1.6179139 -1.654517,2.7756877 -3.27092,2.6009752 l -0.371166,3.0923696 c 0.03296,0.00438 0.06544,0.00918 0.09887,0.013203 2.620097,0.314356 4.998459,-1.5551162 5.313659,-4.1751026 0.313465,-2.619764 -1.55548,-4.99892596 -4.175145,-5.31323366"
   style="fill:#d71635;fill-opacity:1;stroke:none;stroke-width:0.426244;stroke-opacity:1"
   id="path2311-1" /><path
   d="M 0.11819427,2.4888009 C 0.22088565,2.4449184 0.32397225,2.4052127 0.4281999,2.3692527 l 0.192243,0.4509212 C 0.55968906,2.8417854 0.49697321,2.8653312 0.43660759,2.8911282 -1.073363,3.5359597 -1.7748688,5.2829122 -1.1300343,6.7928862 -0.49005957,8.2914846 1.236247,8.993473 2.7388638,8.3726389 l 1.2231647,2.8643301 c -0.030404,0.01344 -0.06026,0.02717 -0.091201,0.04039 -2.4269193,1.036237 -5.2339842,-0.09156 -6.2710014,-2.5181342 -1.0352903,-2.4268465 0.091773,-5.234531 2.51829248,-6.2706008"
   style="fill:#d71635;fill-opacity:1;stroke:none;stroke-width:0.426244;stroke-opacity:1"
   id="path2311-1-7" /><path
   d="m 18.709704,16.336968 c 0.0076,-0.103982 0.01105,-0.207084 0.01134,-0.31002 l -0.456508,-0.03271 c -3.94e-4,0.06021 -0.0025,0.122759 -0.007,0.183825 -0.110508,1.529014 -1.439687,2.679141 -2.968694,2.568631 -1.517505,-0.109677 -2.661784,-1.420465 -2.570232,-2.935692 L 9.8181625,15.601412 c -0.00225,0.03082 -0.00567,0.06145 -0.00798,0.09278 -0.1774545,2.457469 1.6711207,4.593048 4.1285297,4.771299 2.457134,0.176641 4.593477,-1.671489 4.7709,-4.128556"
   style="fill:#d71635;fill-opacity:1;stroke:none;stroke-width:0.397976;stroke-opacity:1"
   id="path2311-2" /></svg>
